# xmcd CD database file
#
# Track frame offsets:
#	150
#	14076
#	27898
#	43387
#	57548
#	72509
#	84120
#	100671
#	118913
#	133679
#	149883
#	162757
#	172159
#	186137
#	200920
#	214261
#	232007
#	242742
#	255763
#	267924
#
# Disc length: 3928 seconds
#
# Revision: 0
# Processed by: cddbd v1.5.2PL0 Copyright (c) Steve Scherf et al.
# Submitted via: CDex 1.51
#
DISCID=370f5614
DTITLE=Ken Colyer's Jazzmen - Ken Colyer CD 2
DYEAR=1900
DGENRE=Jazz
TTITLE0=Stockyard Strut
TTITLE1=Sing On
TTITLE2=La Harpe Street Blues
TTITLE3=Early Hours
TTITLE4=Maryland My Maryland
TTITLE5=Shimme Sha Wabble
TTITLE6=The Entertainer
TTITLE7=Thriller Rag
TTITLE8=The World Is Waiting For The Sunrise
TTITLE9=The Crane River Jazzband - I'm Travelling
TTITLE10=Isle Of Capri
TTITLE11=Bill Bailey
TTITLE12=If I Ever Cease To Love
TTITLE13=The Christie Brothers Stompers - Moonshine
TTITLE14=Too Busy
TTITLE15=Saturday Night Function
TTITLE16=The Christie Brothers Stompers - Bogalusa Moan
TTITLE17=The Christie Brothers Stompers - My Bucket's Got A Hole
TTITLE18=Lord Lord Lord
TTITLE19=Blame It On The Blues
EXTD=
EXTT0=
EXTT1=
EXTT2=
EXTT3=
EXTT4=
EXTT5=
EXTT6=
EXTT7=
EXTT8=
EXTT9=
EXTT10=
EXTT11=
EXTT12=
EXTT13=
EXTT14=
EXTT15=
EXTT16=
EXTT17=
EXTT18=
EXTT19=
PLAYORDER=
